<?xml version="1.0" encoding="utf-8"?>
<!-- Generator: Adobe Illustrator 12.0.0, SVG Export Plug-In . SVG Version: 6.00 Build 51448)  -->
<!DOCTYPE svg PUBLIC "-//W3C//DTD SVG 1.1//EN" "http://www.w3.org/Graphics/SVG/1.1/DTD/svg11.dtd" [
	<!ENTITY ns_svg "http://www.w3.org/2000/svg">
	<!ENTITY ns_xlink "http://www.w3.org/1999/xlink">
]>
<svg  version="1.1" id="set" xmlns="&ns_svg;" xmlns:xlink="&ns_xlink;" width="267.233" height="266.84"
	 viewBox="0 0 267.233 266.84" overflow="visible" enable-background="new 0 0 267.233 266.84" xml:space="preserve">
<g>
	<path fill="#713816" d="M266.46,135.738c0.517-8.206,1.359-16.297,0.165-24.656c-1.314-9.205-5.763-17.297-7.367-26.286
		c-2.471-13.841-15.345-21.638-24.094-31.409c-11.864-13.248-20.816-25.965-37.737-33.088c-11.292-4.754-22.36-11.678-34.31-14.47
		c-28.074-6.557-54.799-0.464-81.05,9.69c-8.454,3.271-18.093,5.526-25.379,10.789C45.648,34.279,38.814,48.96,29.188,58.604
		C16.329,71.485,9.464,80.003,7.908,99.229c-0.758,9.363,1.876,16.473-1.909,25.318c-6.652,15.546-5.629,30.036-0.574,46.412
		c1.959,6.344,4.707,12.45,7.015,18.686c2.541,6.864,7.958,10.404,11.98,15.996c5.117,7.113,7.68,14.747,13.593,21.532
		c6.097,6.993,12.525,12.931,20.441,17.912c15.536,9.775,33.36,15.868,51.022,20.479c10.629,2.774,23.081,0.084,34.05,0.604
		c10.769,0.511,17.728,0.436,27.629-4.486c10.384-5.162,22.797-5.149,32.926-11.392c11.414-7.035,17.857-17.099,27.162-26.292
		c5.411-5.346,14.128-10.779,17.884-17.386c3.074-5.404,2.901-13.047,4.734-19.172c2.23-7.446,6.065-12.903,9.229-19.741
		c3.693-7.977,2.904-16.755,3.065-25.158C266.201,140.259,266.317,137.995,266.46,135.738z"/>
	<path fill="#92542A" d="M262.463,131.293c0.512-8.122,1.346-16.132,0.164-24.407c-1.301-9.112-5.705-17.123-7.293-26.022
		c-2.445-13.701-15.189-21.419-23.851-31.091c-11.744-13.113-20.606-25.703-37.357-32.755c-11.177-4.705-22.134-11.56-33.963-14.323
		c-27.79-6.491-54.246-0.459-80.231,9.593c-8.369,3.237-17.91,5.47-25.123,10.679c-10.928,7.892-17.691,22.425-27.221,31.97
		C14.857,67.689,8.062,76.122,6.522,95.153c-0.75,9.27,1.856,16.307-1.89,25.063c-6.585,15.389-5.573,29.733-0.568,45.943
		c1.939,6.281,4.658,12.324,6.943,18.498c3.757,10.149,12.975,14.168,17.611,24.802c10.843,24.868,40.255,40.074,66.662,40.968
		c13.479,0.456,21.889,2.851,34.23,7.497c22.313,8.399,33.747-8.203,52.978-14.89c8.549-2.971,18.024-1.435,26.2-5.859
		c7.714-4.174,12.723-12.396,18.914-18.512c5.357-5.292,13.986-10.67,17.704-17.21c3.042-5.35,2.871-12.915,4.686-18.979
		c2.208-7.37,6.003-12.773,9.137-19.541c3.656-7.897,2.875-16.586,3.034-24.904C262.207,135.769,262.323,133.527,262.463,131.293z"
		/>
	<path fill="#B36A2E" d="M52.203,33.256c10.142-9.401,21.32-17.026,31.736-19.68c11.202-2.854,21.701-3.903,33.146-4.264
		c8.444-0.266,16.511-2.533,24.877-3.219c16.177-1.328,32.442,7.593,46.155,15.259c11.109,6.211,16.725,14.091,24.175,23.995
		c9.58,12.733,26.293,17.686,35.628,30.01c12.879,17.005-0.513,34.399,6.225,52.566c7.208,19.431-0.696,25.411-10.884,40.95
		c-13.212,20.149-28.784,45.736-52.731,54.515c-15.245,5.588-29.454,5.673-44.027,13.675c-11.309,6.208-23.563,11.661-36.344,7.889
		c-11.916-3.516-19.007-12.906-29.662-18.52c-9.995-5.266-22.132-2.16-32.087-7.275C40,214.835,34.123,205.76,29.673,197.79
		c-4.2-7.528-9.149-13.787-14.213-20.697C4.419,162.03,1.517,145.41,10.383,128.425c3.493-6.692,8.236-11.01,7.959-19.059
		c-0.232-6.783-7.227-12.39-7.305-18.808C10.84,74.492,41.065,43.583,52.203,33.256z"/>
	<path fill="#C1773D" d="M83.381,18.773c7.521-2.381,14.119,0.832,21.532,1.374c16.873,1.233,33.148-7.688,50.219-6.45
		c17.278,1.252,29.584,11.466,39.378,25.206c20.522,28.789,59.66,35.121,52.889,78.897c-1.5,9.695,0.136,24.613-6.071,32.7
		c-8.697,11.333-28.541,9.897-40.722,15.046c-14.327,6.058-17.511,17.098-28.332,26.266c-9.863,8.357-23.152,7.54-35.071,11.105
		c-14.389,4.304-27.568,14.622-43.057,14.376c-11.411-0.181-26.681-6.814-35.754-13.628c-10.177-7.641-9.768-16.023-16.857-26.66
		c-5.601-8.402-14.182-8.442-20.635-14.859c-11.808-11.741-4.325-22.244-0.914-35.472c3.787-14.689-1.488-25.669-1.069-40.23
		c0.41-14.243,20.602-26.733,33.081-30.405C76.08,48.956,63.642,25.021,83.381,18.773z"/>
	<path fill="#D08346" d="M188.675,155.362c16.685,0.444,16.054-14.262,26.527-22.589c13.061-10.383,25.871-22.591,16.967-40.607
		c-5.109-10.337-14.489-17.861-21.912-26.436c-6.838-7.9-11.326-16.934-16.957-25.639c-14.309-22.119-33.774-26.015-58-19.387
		c-9.904,2.709-18.854,4.18-29.111,2.736c-6.65-0.937-15.669-4.632-21.608,0.086c-6.182,4.913-7.045,17.031-10.683,23.73
		c-4.457,8.211-11.628,14.554-19.393,19.569c-6.234,4.027-16.633,4.77-18.649,13.241c-0.893,3.748,2.312,5.785,2.375,8.973
		c0.065,3.364-1.988,6.957-2.915,10.168c-2.276,7.883-4.048,16.462-0.787,24.352c2.812,6.804,5.694,10.083,6.331,17.786
		c1.236,14.962,4.777,28.252,17.054,38.208c15.183,12.313,36.068,12.701,51.708,1.096c11.682-8.669,18.537-26.084,33.201-30.216
		C157.795,146.216,173.692,154.964,188.675,155.362z"/>
	<path fill="#C1773D" d="M213.258,115.484c2.049-1.548,2.932-3.904,1.858-7.444c-0.441-1.453-2.439-3.186-3.053-4.99
		c-0.934-2.739,0.622-6.372-1.018-8.986c-12.29-19.586-53.715,22.969-24.192,23.724
		C193.779,117.964,207.743,119.652,213.258,115.484z"/>
	<path fill="#B36A2E" d="M157.117,162.995c-4.575,8.785,1.389,24.28,13.601,18.79C185.878,174.971,162.442,152.818,157.117,162.995z
		"/>
	<path fill="#C1773D" d="M88.468,27.764c0.998-0.727,2.026-1.24,3.057-1.478c9.188-2.126,18.477,8.145,15.005,16.563
		c-1.844,4.472-16.98,14.227-22.188,12.292C74.956,51.654,80.784,33.36,88.468,27.764z"/>
	<path fill="#C1773D" d="M46.728,121.127c-4.197,3.353-0.979,9.919,4.234,8.306C57.014,127.56,53.618,115.642,46.728,121.127z"/>
	<path fill="#C1773D" d="M113.928,64.893c-2.496,1.994-0.582,5.898,2.518,4.938C120.044,68.718,118.025,61.631,113.928,64.893z"/>
	<path fill="#C1773D" d="M199.62,131.387c-2.497,1.994-0.583,5.899,2.518,4.939C205.735,135.212,203.716,128.125,199.62,131.387z"/>
	<path fill="#C1773D" d="M112.135,26.853c-2.497,1.995-0.583,5.899,2.519,4.939C118.251,30.678,116.232,23.592,112.135,26.853z"/>
	<path fill="#C1773D" d="M99.233,112.276c-2.496,1.994-0.583,5.899,2.518,4.939C105.349,116.1,103.33,109.014,99.233,112.276z"/>
	<path fill="#B36A2E" d="M144.847,32.707c-3.986,0.341-4.97,6.227-1.159,7.698C149.263,42.558,152.378,32.063,144.847,32.707z"/>
	<path fill="#B36A2E" d="M70.443,153.788c-2.991,0.255-3.729,4.671-0.87,5.776C73.757,161.179,76.095,153.305,70.443,153.788z"/>
	<path fill="#B36A2E" d="M155.059,180.844c-2.992,0.255-3.73,4.672-0.871,5.776C158.371,188.236,160.71,180.361,155.059,180.844z"/>
	<path fill="#B36A2E" d="M209.071,101.063c-3.985,0.34-4.97,6.226-1.159,7.698C213.489,110.914,216.603,100.419,209.071,101.063z"/>
	<path fill="#92542A" d="M229.196,167.633c-4.226,0.395-6.241,5.789-1.946,7.669C233.258,177.933,237.855,166.823,229.196,167.633z"
		/>
	<path fill="#B36A2E" d="M125.467,199.822c1.355-3.004,1.652-6.478,0.491-9.635c-0.912-2.478-3.979-6.946-6.683-7.764
		c-7.939-2.401-17.207-0.699-21.776,6.843c-6.191,10.221,12.22,20.411,20.377,17.655
		C121.304,205.764,124.002,203.067,125.467,199.822z"/>
	<path fill="#92542A" d="M120.784,199.6c0.728-1.262,1.278-2.646,1.642-4.027c0.559-2.125,1.335-6.793,0.138-8.826
		c-1.674-2.842-6.541-3.292-9.431-3.361c-4.314-0.104-9.187,1.057-11.839,4.748c-5.149,7.171,3.522,15.748,10.605,16.61
		C115.919,205.235,118.93,202.816,120.784,199.6z"/>
	<path fill="#B36A2E" d="M111.166,47.244c1.825,2.898-0.389,7.068-0.825,9.983c-0.402,2.681-1.14,5.075-4.013,5.967
		c-6.213,1.93-14.718-1.474-17.647-7.299c-2.213-4.399,0.967-12.632,6.355-13.014C98.268,42.651,109.278,44.252,111.166,47.244z"/>
	<path fill="#4D2419" d="M110.648,40.697c1.826,2.898-0.389,7.067-0.825,9.983c-0.402,2.681-1.141,5.075-4.013,5.967
		c-6.213,1.93-14.718-1.473-17.648-7.299c-2.212-4.4,0.968-12.632,6.356-13.015C97.75,36.104,108.761,37.705,110.648,40.697z"/>
	<path fill="#79441C" d="M108.771,39.943c2.468,3.918-1.889,11.024-4.914,13.483c-4.53,3.684-8.019,1.376-12.711-0.766
		c-6.405-2.922-6.377-17.537,1.598-18.102C95.975,34.33,106.883,36.951,108.771,39.943z"/>
	<path fill="#92542A" d="M158.299,174.54c-1.337-1.967-1.528-4.637-1.339-6.943c0.428-5.248,4.181-14.813,10.651-15.102
		c4.43-0.198,6.762,5.49,7.906,9.021c1.654,5.104,2.194,11.808-3.403,14.674c-3.1,1.588-9.796,1.97-12.669-0.391
		C158.994,175.428,158.615,175.004,158.299,174.54z"/>
	<path fill="#4D2419" d="M153.624,171.575c-2.814-2.291,1.81-8.237,1.486-11.642c-0.322-3.372-4.172-7.212-0.081-9.345
		c3.299-1.718,7.934-4.651,14.446-0.51c6.085,3.87,3.087,17.717-0.644,22.202C165.125,176.735,158.189,175.291,153.624,171.575z"/>
	<path fill="#79441C" d="M150.962,169.8c-2.814-2.29,1.811-8.237,1.486-11.642c-0.321-3.371-4.172-7.213-0.08-9.345
		c3.298-1.718,13.013-2.012,16.135,0.347c5.756,4.344,1.396,16.86-2.333,21.345C162.462,174.961,155.528,173.516,150.962,169.8z"/>
	<path fill="#B36A2E" d="M203.627,96.224c1,3.157-0.88,11.104-3.271,13.304c-3.699,3.406-19.317,2.388-19.638,0.488
		c-0.986-5.832,1.455-13.588,7.657-16.604C191.919,91.688,202.347,92.188,203.627,96.224z"/>
	<path fill="#4D2419" d="M198.812,91.028c1,3.158-0.881,11.104-3.271,13.304c-3.699,3.405-19.317,2.387-19.638,0.488
		c-0.986-5.832,1.455-13.588,7.656-16.604C187.104,86.492,197.532,86.991,198.812,91.028z"/>
	<path fill="#341C18" d="M198.812,91.028c1,3.158-0.881,11.104-3.271,13.304c-3.699,3.405-12.867-4-13.964-5.583
		c-1.724-2.488-4.218-7.518,1.982-10.534C187.104,86.492,197.532,86.991,198.812,91.028z"/>
	<path fill="#79441C" d="M195.75,90.215c1,3.157-1.027,10.955-3.271,13.303c-2.09,2.188-16.256,3.201-16.577,1.301
		c-0.986-5.832-1.33-13.552,4.871-16.568C184.318,86.528,194.47,86.178,195.75,90.215z"/>
	<path fill="#C1773D" d="M88.459,133.012c-5.604,3.393-14.576-7.583-15.891-12.7c4.767-6.166,12.588-17.926,16.271-16.808
		c3.545,1.075,5.75,7.131,7.406,10.123c2.713,4.897,2.453,8.917-0.969,13.234C94.743,127.533,91.362,131.25,88.459,133.012z"/>
	<path fill="#B36A2E" d="M86.348,126.64c-1.084,0.286-2.233,0.301-3.419-0.042c-6.127-1.771-9.361-12.833-3.802-16.965
		c5.047-3.751,14.359-3.36,15.211,4.196C94.854,118.405,91.278,125.336,86.348,126.64z"/>
	<path fill="#79441C" d="M85.221,123.854c-4.681,2.834-12.174-6.333-13.272-10.608c3.981-5.15,10.515-14.973,13.591-14.04
		c2.96,0.898,4.802,5.958,6.185,8.456c2.267,4.091,2.05,7.449-0.809,11.055C90.471,119.278,87.646,122.383,85.221,123.854z"/>
	<path fill="#4D2419" d="M85.221,123.854c-4.681,2.834-8.955-26.099,0.319-24.648c3.057,0.479,4.802,5.958,6.185,8.456
		c2.267,4.091,2.05,7.449-0.809,11.055C90.471,119.278,87.646,122.383,85.221,123.854z"/>
	<path fill="#92542A" d="M83.757,123.47c-1.106,1.221-11.8-7.38-11.808-10.224c-0.014-4.403,8.041-14.819,13.011-13.93
		c1.207,0.217,4.151,5.943,4.99,7.457C94.398,114.801,89.271,117.384,83.757,123.47z"/>
	<path fill="#4D2419" d="M97.255,192.416c3.814-7.842,6.191-15.774,17.017-11.928c7.961,2.828,10.199,2.755,5.649,12.166
		c-1.854,3.838-4.09,9.897-9.177,10.229C105.191,203.246,101.651,194.898,97.255,192.416z"/>
	<path fill="#79441C" d="M95.14,190.813c3.814-7.842,4.948-15.729,15.774-11.883c7.961,2.828,10.895,1.651,6.345,11.061
		c-1.854,3.838-4.091,9.897-9.177,10.229C102.529,200.583,99.537,193.294,95.14,190.813z"/>
	<path fill="#92542A" d="M183.067,223.437c-3.531,0.849-7.256-0.045-10.431-1.685c-2.08-1.075-7.327-3.784-6.952-6.71
		c0.159-1.249,1.162-2.473,1.949-3.4c1.829-2.152,4.286-3.047,6.942-3.808c1.415-0.404,2.905-0.342,4.326-0.579
		c2.618-0.434,5.47-1.45,7.12,1.377c1.089,1.867,2.933,3.583,3.558,5.66c1.278,4.245-2.447,8.091-6.304,9.093
		C183.205,223.403,183.136,223.421,183.067,223.437z"/>
	<path fill="#4D2419" d="M180.639,220.932c-6.684-1.218-20.709-8.345-20.709-8.345c2.468-5.725,4.062-7.34,10.578-9.202
		c1.53-0.438,14.424-2.313,14.813,0.632C185.963,208.897,183.063,215.992,180.639,220.932z"/>
	<path fill="#341C18" d="M180.639,220.932c-2.889-5.692-3.994-10.961-3.994-10.961c2.468-5.726,8.287-8.898,8.675-5.954
		C185.963,208.897,183.063,215.992,180.639,220.932z"/>
	<path fill="#79441C" d="M179.447,218.545c-1.355-0.575-19.536-5.917-19.518-5.958c2.468-5.725,3.175-9.115,9.691-10.977
		c1.53-0.438,16.514-0.448,15.7,2.407C183.946,208.842,181.61,214.138,179.447,218.545z"/>
	<path fill="#C1773D" d="M182.939,60.4c-1.904,0.313-3.643,0.177-4.903-0.62c-7.456-4.717,2.056-21.152,9.635-20.583
		c4.791,0.36,10.222,9.217,8.037,13.404C194.107,55.669,187.95,59.582,182.939,60.4z"/>
	<path fill="#B36A2E" d="M180.813,57.291c-3.648,0.428-6.862-0.857-6.739-5.594c0.149-5.797,6.03-10.481,11.415-10.995
		c7.45-0.71,8.659,7.494,4.325,12.304C188.031,54.984,184.231,56.891,180.813,57.291z"/>
	<path fill="#4D2419" d="M179.168,56.679c-13.435,4.07-5.627-21.52,4.807-20.736c1.558,0.118,7.145,4.753,7.145,7.633
		C191.12,45.073,180.547,56.262,179.168,56.679z"/>
	<path fill="#92542A" d="M178.281,54.905c-13.435,4.07-4.74-19.745,5.694-18.961c1.558,0.118,6.216,4.393,6.256,5.858
		C190.273,43.297,179.66,54.487,178.281,54.905z"/>
	<path fill="#C1773D" d="M47.359,159.489c-0.098,0.097-0.194,0.187-0.291,0.269c-6.029,5.161-14.402-1.556-16.859-7.03
		c4.14-3.506,15.151-13.675,20.456-6.89C52.981,148.797,50.028,156.823,47.359,159.489z"/>
	<path fill="#B36A2E" d="M44.936,157.245c-1.962,0.91-4.185,1.24-6.161,0.739c-4.715-1.196-10.392-6.701-5.456-11.207
		c3.955-3.61,12.876-5.816,15.986-0.351C51.922,151.027,48.982,155.369,44.936,157.245z"/>
	<path fill="#4D2419" d="M45.738,154.301c0.197-0.582-14.126-3.155-15.489-3.674l-1.161-2.585c0,0,11.945-10.117,16.646-7.853
		C53.667,144.009,48.195,147.023,45.738,154.301z"/>
	<path fill="#341C18" d="M45.738,154.301c0.197-0.582-6.824-6.325-8.186-6.843c0,0,3.482-9.533,8.183-7.269
		C53.667,144.009,48.195,147.023,45.738,154.301z"/>
	<path fill="#79441C" d="M43.077,151.639c0.196-0.582-12.625-3.079-13.988-3.597c-1.67-8.044,7.331-12.667,13.866-9.519
		C50.886,142.343,45.533,144.36,43.077,151.639z"/>
	<path fill="#B36A2E" d="M232.494,119.301c4.826,3.114,7.402,17.782-0.068,19.468c-6.125,1.382-13.056-4.841-15.644-9.647
		C212.009,120.259,225.534,114.81,232.494,119.301z"/>
	<path fill="#4D2419" d="M231.236,115.229c6.248,4.03,2.727,13.256,0.152,18.428c-6.509-1.311-12.75-5.88-17.854-10.611
		C217.117,116.721,221.802,109.145,231.236,115.229z"/>
	<path fill="#79441C" d="M230.348,113.455c6.248,4.03,2.727,13.256,0.153,18.429c-6.509-1.311-10.702-7.325-16.967-8.837
		C217.117,116.721,220.915,107.37,230.348,113.455z"/>
	<path fill="#D08346" d="M54.434,39.069c-4.168,0.139-7.291,5.079-2.459,7.172C57.82,48.775,62.349,38.808,54.434,39.069z"/>
	<path fill="#D08346" d="M47.123,49.872c-1.975,0.066-3.455,2.408-1.165,3.399C48.729,54.472,50.875,49.749,47.123,49.872z"/>
	<path fill="#EAAA62" d="M80.493,176.309c-5.61,0.186-9.811,6.834-3.309,9.652C85.051,189.369,91.145,175.957,80.493,176.309z"/>
</g>
</svg>
