<svg id="Capa_1" enable-background="new 0 0 512 512" height="512" viewBox="0 0 512 512" width="512" xmlns="http://www.w3.org/2000/svg"><path d="m452.634 292.066c-47.893-27.61-92.179-61.614-131.63-101.067s-73.454-83.74-101.063-131.635c-29.632-51.407-92.564-73.083-147.295-50.409-65.887 27.289-92.267 106.233-56.858 167.73 76.383 132.661 186.875 243.158 319.531 319.544 61.49 35.408 140.469 8.945 167.723-56.86 22.71-54.825.917-117.715-50.408-147.303zm13.453 131.995c-17.935 43.302-69.971 61.016-110.808 37.501-126.551-72.871-231.958-178.282-304.826-304.838 0 0 0 0 0-.001-23.475-40.769-5.863-92.85 37.502-110.811 36.104-14.957 77.868-.336 97.332 33.431 15.943 27.656 33.902 54.167 53.686 79.346h-71.225c-11.046 0-20 8.955-20 20.001 0 11.047 8.954 20.001 20 20.001h105.251c6.427 6.99 12.99 13.866 19.72 20.596 18.579 18.579 38.173 36.017 58.662 52.238h-78.164c-11.046 0-20 8.955-20 20.001 0 11.047 8.954 20.001 20 20.001h134.412c8.236 5.243 16.574 10.322 25.029 15.196 33.937 19.565 48.31 61.411 33.429 97.338z"/></svg>